# xmcd
# 
# Track frame offsets:
#     150
#     21067
#     40180
#     56777
#     74319
#     88238
#     113455
#     131270
#     154919
#     169371
#     183449
#     196057
# 
# Disc length: 2936
# 
# Revision: 6
# Processed by: cddbd v1.5.2PL0 Copyright (c) Steve Scherf et al.
# Submitted via: fre:ac v1.1beta1pre5
# 
DISCID=9d0b760c
DTITLE=Norah Jones - Day Breaks
DYEAR=2016
DGENRE=Contemporary Jazz
TTITLE0=Burn
TTITLE1=Tragedy
TTITLE2=Flipside
TTITLE3=It's A Wonderful Time For Love
TTITLE4=And Then There Was You
TTITLE5=Don't Be Denied
TTITLE6=Day Breaks
TTITLE7=Peace
TTITLE8=Once I Had A Laugh
TTITLE9=Sleeping Wild
TTITLE10=Carry On
TTITLE11=Fleurette Africaine (African Flower)
EXTD=
EXTT0=
EXTT1=
EXTT2=
EXTT3=
EXTT4=
EXTT5=
EXTT6=
EXTT7=
EXTT8=
EXTT9=
EXTT10=
EXTT11=
PLAYORDER=
